<?xml version="1.0" encoding="utf-8"?>
<!-- Generator: Adobe Illustrator 16.0.4, SVG Export Plug-In . SVG Version: 6.00 Build 0)  -->
<!DOCTYPE svg PUBLIC "-//W3C//DTD SVG 1.1//EN" "http://www.w3.org/Graphics/SVG/1.1/DTD/svg11.dtd">
<svg version="1.1" id="レイヤー_1" xmlns="http://www.w3.org/2000/svg" xmlns:xlink="http://www.w3.org/1999/xlink" x="0px"
	 y="0px" width="800px" height="800px" viewBox="0 0 800 800" enable-background="new 0 0 800 800" xml:space="preserve">
<g>
	<path fill="#207184" stroke="#000000" stroke-width="5" stroke-linecap="round" d="M560.488,317.427H223.415v161.798h337.074
		V317.427z M231.279,334.282c0-4.964,4.021-8.988,8.988-8.988c4.962,0,8.988,4.024,8.988,8.988s-4.026,8.989-8.988,8.989
		C235.301,343.272,231.279,339.246,231.279,334.282z M474.535,334.282c0-4.964,4.023-8.988,8.988-8.988s8.988,4.024,8.988,8.988
		s-4.025,8.989-8.988,8.989C478.559,343.271,474.535,339.246,474.535,334.282z M231.279,462.37c0-4.963,4.021-8.987,8.988-8.987
		c4.962,0,8.988,4.024,8.988,8.987c0,4.966-4.026,8.987-8.988,8.987C235.301,471.357,231.279,467.335,231.279,462.37z
		 M474.535,462.37c0-4.963,4.023-8.987,8.988-8.987s8.988,4.024,8.988,8.987c0,4.966-4.025,8.987-8.988,8.987
		C478.559,471.357,474.535,467.335,474.535,462.37z"/>
	
		<rect x="259.93" y="328.101" fill="#207184" stroke="#000000" stroke-width="5" stroke-linecap="round" width="206.738" height="140.448"/>
	
		<rect x="528.467" y="455.067" fill="#262626" stroke="#000000" stroke-width="5" stroke-linecap="round" width="28.088" height="14.045"/>
	
		<rect x="276.783" y="447.763" fill="#C9CACA" stroke="#000000" stroke-width="5" stroke-linecap="round" width="56.18" height="17.979"/>
	
		<rect x="227.625" y="353.943" fill="#262626" stroke="#000000" stroke-width="5" stroke-linecap="round" width="28.092" height="14.048"/>
	
		<rect x="227.625" y="376.416" fill="#262626" stroke="#000000" stroke-width="5" stroke-linecap="round" width="28.092" height="14.045"/>
	<path fill="#F8B62D" d="M495.32,462.37c0-6.515-5.281-11.8-11.797-11.8s-11.797,5.285-11.797,11.8s5.281,11.798,11.797,11.798
		S495.32,468.884,495.32,462.37z M474.535,462.37c0-4.963,4.023-8.987,8.988-8.987s8.988,4.024,8.988,8.987
		c0,4.966-4.025,8.987-8.988,8.987C478.559,471.357,474.535,467.335,474.535,462.37z"/>
	<path fill="#F8B62D" d="M495.32,334.282c0-6.52-5.281-11.797-11.797-11.797s-11.797,5.278-11.797,11.797
		c0,6.517,5.281,11.798,11.797,11.798S495.32,340.798,495.32,334.282z M474.535,334.282c0-4.964,4.023-8.988,8.988-8.988
		s8.988,4.024,8.988,8.988s-4.025,8.989-8.988,8.989C478.559,343.271,474.535,339.246,474.535,334.282z"/>
	<path fill="#F8B62D" d="M252.065,462.37c0-6.515-5.283-11.8-11.798-11.8c-6.518,0-11.799,5.285-11.799,11.8
		s5.281,11.798,11.799,11.798C246.782,474.167,252.065,468.884,252.065,462.37z M231.279,462.37c0-4.963,4.021-8.987,8.988-8.987
		c4.962,0,8.988,4.024,8.988,8.987c0,4.966-4.026,8.987-8.988,8.987C235.301,471.357,231.279,467.335,231.279,462.37z"/>
	<path fill="#F8B62D" d="M252.065,334.282c0-6.52-5.283-11.797-11.798-11.797c-6.518,0-11.799,5.278-11.799,11.797
		c0,6.517,5.281,11.798,11.799,11.798C246.782,346.08,252.065,340.798,252.065,334.282z M231.279,334.282
		c0-4.964,4.021-8.988,8.988-8.988c4.962,0,8.988,4.024,8.988,8.988s-4.026,8.989-8.988,8.989
		C235.301,343.272,231.279,339.246,231.279,334.282z"/>
	
		<rect x="317.793" y="328.101" fill="none" stroke="#000000" stroke-width="5" stroke-linecap="round" width="148.875" height="101.122"/>
	
		<rect x="276.783" y="447.763" fill="none" stroke="#000000" stroke-width="5" stroke-linecap="round" width="56.18" height="17.979"/>
	
		<rect x="539.141" y="399.448" fill="none" stroke="#000000" stroke-width="5" stroke-linecap="round" width="32.584" height="42.695"/>
	
		<rect x="539.141" y="328.663" fill="none" stroke="#000000" stroke-width="5" stroke-linecap="round" width="32.584" height="42.698"/>
	
		<rect x="539.141" y="399.448" fill="#C9CACA" stroke="#000000" stroke-width="5" stroke-linecap="round" width="32.584" height="42.695"/>
	
		<rect x="539.141" y="328.663" fill="#C9CACA" stroke="#000000" stroke-width="5" stroke-linecap="round" width="32.584" height="42.698"/>
	<path fill="#7F4F21" d="M297.008,328.101c-5.994,0-11.986,0-17.979,0c-5.556,7.407-0.271,17.979,8.987,17.979
		C297.277,346.08,302.563,335.509,297.008,328.101z"/>
	<circle fill="#7F4F21" cx="452.625" cy="451.695" r="11.234"/>
	<g>
		<rect x="533.383" y="458.931" fill="#C9A063" width="6.32" height="6.317"/>
		<rect x="545.322" y="458.931" fill="#C9A063" width="6.318" height="6.317"/>
	</g>
	<g>
		<rect x="232.542" y="380.279" fill="#C9A063" width="6.319" height="6.318"/>
		<rect x="244.483" y="380.279" fill="#C9A063" width="6.317" height="6.318"/>
	</g>
	<g>
		<rect x="232.542" y="357.806" fill="#C9A063" width="6.319" height="6.32"/>
		<rect x="244.483" y="357.806" fill="#C9A063" width="6.317" height="6.32"/>
	</g>
	<polygon fill="#B5B5B6" points="277.59,448.224 277.59,465.519 331.697,465.519 304.64,456.871 	"/>
	<polygon fill="#B5B5B6" points="538.744,329.97 538.744,370.053 571.264,370.053 555.002,350.011 	"/>
	<polygon fill="#B5B5B6" points="538.744,400.755 538.744,440.839 571.264,440.839 555.002,420.797 	"/>
	<g>
		
			<rect x="317.793" y="328.101" fill="#C9CACA" stroke="#000000" stroke-width="5" stroke-linecap="round" width="148.875" height="101.122"/>
		<polygon fill="#B5B5B6" points="319.443,330.12 319.443,429.196 463.139,429.196 391.29,379.66 		"/>
		
			<rect x="317.793" y="328.101" fill="none" stroke="#000000" stroke-width="5" stroke-linecap="round" width="148.875" height="101.122"/>
	</g>
	
		<rect x="276.783" y="447.763" fill="none" stroke="#000000" stroke-width="5" stroke-linecap="round" width="56.18" height="17.979"/>
	
		<rect x="539.141" y="399.448" fill="none" stroke="#000000" stroke-width="5" stroke-linecap="round" width="32.584" height="42.695"/>
	
		<rect x="539.141" y="328.663" fill="none" stroke="#000000" stroke-width="5" stroke-linecap="round" width="32.584" height="42.698"/>
	
		<rect x="259.93" y="328.101" fill="none" stroke="#000000" stroke-width="5" stroke-linecap="round" width="206.738" height="140.448"/>
	<polygon fill="#808484" points="448.408,444.393 444.191,451.696 448.408,458.999 456.84,458.999 461.059,451.696 456.84,444.393 	
		"/>
	<polygon fill="#808484" points="283.803,327.541 279.584,334.844 283.803,342.148 292.236,342.148 296.452,334.844 
		292.236,327.541 	"/>
</g>
</svg>
