<?xml version="1.0" encoding="utf-8"?>
<!-- Generator: Adobe Illustrator 16.0.4, SVG Export Plug-In . SVG Version: 6.00 Build 0)  -->
<!DOCTYPE svg PUBLIC "-//W3C//DTD SVG 1.1//EN" "http://www.w3.org/Graphics/SVG/1.1/DTD/svg11.dtd">
<svg version="1.1" id="レイヤー_1" xmlns="http://www.w3.org/2000/svg" xmlns:xlink="http://www.w3.org/1999/xlink" x="0px"
	 y="0px" width="800px" height="800px" viewBox="0 0 800 800" enable-background="new 0 0 800 800" xml:space="preserve">
<g>
	<path fill="#006934" stroke="#000000" stroke-width="5" stroke-linecap="round" d="M630.713,528.943c0-91.762,0-183.52,0-275.279
		c0-10.857-8.804-19.662-19.662-19.662c-146.063,0-292.132,0-438.195,0c-10.86,0-19.664,8.805-19.664,19.662
		c0,91.762,0,183.52,0,275.279c0,10.855,8.804,19.662,19.664,19.662c146.063,0,292.132,0,438.195,0
		C621.91,548.605,630.713,539.801,630.713,528.943z M164.99,253.664c0-4.344,3.521-7.865,7.864-7.865
		c4.343,0,7.865,3.521,7.865,7.865s-3.522,7.865-7.865,7.865S164.99,258.008,164.99,253.664z M490.828,253.664
		c0-4.344,3.521-7.865,7.865-7.865c4.342,0,7.864,3.521,7.864,7.865s-3.522,7.865-7.864,7.865
		C494.351,261.529,490.828,258.008,490.828,253.664z M164.99,528.943c0-4.344,3.521-7.867,7.864-7.867
		c4.343,0,7.865,3.523,7.865,7.867s-3.522,7.865-7.865,7.865S164.99,533.285,164.99,528.943z M490.828,528.943
		c0-4.344,3.521-7.867,7.865-7.867c4.342,0,7.864,3.523,7.864,7.867s-3.522,7.865-7.864,7.865
		C494.351,536.809,490.828,533.285,490.828,528.943z"/>
	
		<rect x="434.088" y="478.381" fill="#262626" stroke="#000000" stroke-width="5" stroke-linecap="round" width="39.323" height="70.225"/>
	<polygon fill="#DCDDDD" stroke="#000000" stroke-width="5" stroke-linecap="round" points="175.663,436.811 175.663,345.797 
		184.09,345.797 184.09,328.943 167.236,328.943 167.236,351.98 158.809,359.002 158.809,423.605 167.236,430.627 167.236,453.662 
		184.09,453.662 184.09,436.811 	"/>
	
		<rect x="175.663" y="345.797" fill="#262626" stroke="#000000" stroke-width="5" stroke-linecap="round" width="8.427" height="91.014"/>
	
		<rect x="400.941" y="440.742" fill="#262626" stroke="#000000" stroke-width="5" stroke-linecap="round" width="8.428" height="91.01"/>
	<polygon fill="#DCDDDD" stroke="#000000" stroke-width="5" stroke-linecap="round" points="409.369,440.742 409.369,531.752 
		400.942,531.752 400.942,548.605 417.794,548.605 417.794,525.57 426.223,518.549 426.223,453.943 417.794,446.92 417.794,423.889 
		400.942,423.889 400.942,440.742 	"/>
	
		<rect x="436.897" y="548.605" fill="#231815" stroke="#000000" stroke-width="5" stroke-linecap="round" width="33.707" height="14.045"/>
	
		<rect x="467.795" y="335.123" fill="#262626" stroke="#000000" stroke-width="5" stroke-linecap="round" width="44.943" height="44.941"/>
	
		<rect x="265.552" y="335.123" fill="#262626" stroke="#000000" stroke-width="5" stroke-linecap="round" width="78.647" height="78.648"/>
	
		<rect x="291.392" y="491.863" fill="#C9CACA" stroke="#000000" stroke-width="5" stroke-linecap="round" width="84.269" height="65.168"/>
	
		<rect x="192.518" y="527.256" fill="#C9CACA" stroke="#000000" stroke-width="5" stroke-linecap="round" width="42.697" height="32.584"/>
	
		<rect x="193.077" y="239.619" fill="#262626" stroke="#000000" stroke-width="5" stroke-linecap="round" width="286.515" height="28.09"/>
	<path fill="#C6B626" d="M515.547,528.943c0-9.311-7.547-16.855-16.854-16.855c-9.31,0-16.854,7.545-16.854,16.855
		c0,9.307,7.545,16.854,16.854,16.854C508,545.797,515.547,538.25,515.547,528.943z M490.828,528.943
		c0-4.344,3.521-7.867,7.865-7.867c4.342,0,7.864,3.523,7.864,7.867s-3.522,7.865-7.864,7.865
		C494.351,536.809,490.828,533.285,490.828,528.943z"/>
	<path fill="#C6B626" d="M189.708,528.943c0-9.311-7.547-16.855-16.854-16.855c-9.312,0-16.854,7.545-16.854,16.855
		c0,9.307,7.543,16.854,16.854,16.854C182.161,545.797,189.708,538.25,189.708,528.943z M164.99,528.943
		c0-4.344,3.521-7.867,7.864-7.867c4.343,0,7.865,3.523,7.865,7.867s-3.522,7.865-7.865,7.865S164.99,533.285,164.99,528.943z"/>
	<path fill="#C6B626" d="M189.708,253.664c0-9.309-7.547-16.854-16.854-16.854c-9.312,0-16.854,7.545-16.854,16.854
		s7.543,16.854,16.854,16.854C182.161,270.518,189.708,262.973,189.708,253.664z M164.99,253.664c0-4.344,3.521-7.865,7.864-7.865
		c4.343,0,7.865,3.521,7.865,7.865s-3.522,7.865-7.865,7.865S164.99,258.008,164.99,253.664z"/>
	<path fill="#C6B626" d="M515.547,253.664c0-9.309-7.547-16.854-16.854-16.854c-9.31,0-16.854,7.545-16.854,16.854
		s7.545,16.854,16.854,16.854C508,270.518,515.547,262.973,515.547,253.664z M490.828,253.664c0-4.344,3.521-7.865,7.865-7.865
		c4.342,0,7.864,3.521,7.864,7.865s-3.522,7.865-7.864,7.865C494.351,261.529,490.828,258.008,490.828,253.664z"/>
	<polygon fill="#B5B5B6" stroke="#000000" stroke-width="5" stroke-linecap="round" points="469.053,528.943 470.749,520.109 
		473.411,520.109 473.411,548.605 434.088,548.605 434.088,520.109 436.747,520.109 438.447,528.943 441.109,528.943 
		448.133,492.426 459.367,492.426 466.392,528.943 	"/>
	
		<rect x="291.392" y="491.863" fill="none" stroke="#000000" stroke-width="5" stroke-linecap="round" width="84.269" height="65.168"/>
	
		<rect x="192.518" y="527.256" fill="none" stroke="#000000" stroke-width="5" stroke-linecap="round" width="42.697" height="32.584"/>
	
		<rect x="546.445" y="245.799" fill="none" stroke="#000000" stroke-width="5" stroke-linecap="round" width="95.504" height="73.035"/>
	
		<rect x="546.445" y="345.797" fill="none" stroke="#000000" stroke-width="5" stroke-linecap="round" width="95.504" height="73.033"/>
	
		<rect x="522.287" y="442.426" fill="none" stroke="#000000" stroke-width="5" stroke-linecap="round" width="119.662" height="89.887"/>
	
		<rect x="546.445" y="245.799" fill="#C9CACA" stroke="#000000" stroke-width="5" stroke-linecap="round" width="95.504" height="73.035"/>
	
		<rect x="546.445" y="345.797" fill="#C9CACA" stroke="#000000" stroke-width="5" stroke-linecap="round" width="95.504" height="73.033"/>
	
		<rect x="522.287" y="442.426" fill="#C9CACA" stroke="#000000" stroke-width="5" stroke-linecap="round" width="119.662" height="89.887"/>
	<rect x="436.896" y="548.605" width="10.053" height="14.045"/>
	<g>
		<g>
			<rect x="452.557" y="256.475" fill="#C9CACA" width="6.319" height="6.32"/>
			<rect x="452.557" y="244.535" fill="#C9CACA" width="6.319" height="6.32"/>
		</g>
		<g>
			<rect x="440.62" y="256.475" fill="#C9CACA" width="6.318" height="6.32"/>
			<rect x="440.62" y="244.535" fill="#C9CACA" width="6.318" height="6.32"/>
		</g>
		<g>
			<rect x="428.68" y="256.475" fill="#C9CACA" width="6.319" height="6.32"/>
			<rect x="428.68" y="244.535" fill="#C9CACA" width="6.319" height="6.32"/>
		</g>
		<g>
			<rect x="416.743" y="256.475" fill="#C9CACA" width="6.318" height="6.32"/>
			<rect x="416.743" y="244.535" fill="#C9CACA" width="6.318" height="6.32"/>
		</g>
		<g>
			<rect x="404.803" y="256.475" fill="#C9CACA" width="6.319" height="6.32"/>
			<rect x="404.803" y="244.535" fill="#C9CACA" width="6.319" height="6.32"/>
		</g>
		<g>
			<rect x="392.864" y="256.475" fill="#C9CACA" width="6.321" height="6.32"/>
			<rect x="392.864" y="244.535" fill="#C9CACA" width="6.321" height="6.32"/>
		</g>
		<g>
			<rect x="380.926" y="256.475" fill="#C9CACA" width="6.321" height="6.32"/>
			<rect x="380.926" y="244.535" fill="#C9CACA" width="6.321" height="6.32"/>
		</g>
		<g>
			<rect x="368.989" y="256.475" fill="#C9CACA" width="6.321" height="6.32"/>
			<rect x="368.989" y="244.535" fill="#C9CACA" width="6.321" height="6.32"/>
		</g>
		<g>
			<rect x="357.051" y="256.475" fill="#C9CACA" width="6.321" height="6.32"/>
			<rect x="357.051" y="244.535" fill="#C9CACA" width="6.321" height="6.32"/>
		</g>
		<g>
			<rect x="345.114" y="256.475" fill="#C9CACA" width="6.321" height="6.32"/>
			<rect x="345.114" y="244.535" fill="#C9CACA" width="6.321" height="6.32"/>
		</g>
		<g>
			<rect x="333.177" y="256.475" fill="#C9CACA" width="6.317" height="6.32"/>
			<rect x="333.177" y="244.535" fill="#C9CACA" width="6.317" height="6.32"/>
		</g>
		<g>
			<rect x="321.239" y="256.475" fill="#C9CACA" width="6.317" height="6.32"/>
			<rect x="321.239" y="244.535" fill="#C9CACA" width="6.317" height="6.32"/>
		</g>
		<g>
			<rect x="309.302" y="256.475" fill="#C9CACA" width="6.317" height="6.32"/>
			<rect x="309.302" y="244.535" fill="#C9CACA" width="6.317" height="6.32"/>
		</g>
		<g>
			<rect x="297.362" y="256.475" fill="#C9CACA" width="6.317" height="6.32"/>
			<rect x="297.362" y="244.535" fill="#C9CACA" width="6.317" height="6.32"/>
		</g>
		<g>
			<rect x="285.423" y="256.475" fill="#C9CACA" width="6.319" height="6.32"/>
			<rect x="285.423" y="244.535" fill="#C9CACA" width="6.319" height="6.32"/>
		</g>
		<g>
			<rect x="273.484" y="256.475" fill="#C9CACA" width="6.32" height="6.32"/>
			<rect x="273.484" y="244.535" fill="#C9CACA" width="6.32" height="6.32"/>
		</g>
		<g>
			<rect x="261.545" y="256.475" fill="#C9CACA" width="6.322" height="6.32"/>
			<rect x="261.545" y="244.535" fill="#C9CACA" width="6.322" height="6.32"/>
		</g>
		<g>
			<rect x="249.609" y="256.475" fill="#C9CACA" width="6.32" height="6.32"/>
			<rect x="249.609" y="244.535" fill="#C9CACA" width="6.32" height="6.32"/>
		</g>
		<g>
			<rect x="237.67" y="256.475" fill="#C9CACA" width="6.322" height="6.32"/>
			<rect x="237.67" y="244.535" fill="#C9CACA" width="6.322" height="6.32"/>
		</g>
		<g>
			<rect x="225.732" y="256.475" fill="#C9CACA" width="6.32" height="6.32"/>
			<rect x="225.732" y="244.535" fill="#C9CACA" width="6.32" height="6.32"/>
		</g>
		<g>
			<rect x="213.795" y="256.475" fill="#C9CACA" width="6.32" height="6.32"/>
			<rect x="213.795" y="244.535" fill="#C9CACA" width="6.32" height="6.32"/>
		</g>
		<g>
			<rect x="201.855" y="256.475" fill="#C9CACA" width="6.32" height="6.32"/>
			<rect x="201.855" y="244.535" fill="#C9CACA" width="6.32" height="6.32"/>
		</g>
		<g>
			<rect x="464.495" y="256.475" fill="#C9CACA" width="6.322" height="6.32"/>
			<rect x="464.495" y="244.535" fill="#C9CACA" width="6.322" height="6.32"/>
		</g>
	</g>
	<polygon fill="#B5B5B6" points="546.688,246.865 546.688,317.768 641.428,317.768 594.057,282.316 	"/>
	<polygon fill="#B5B5B6" points="546.828,346.863 546.828,417.768 641.567,417.768 594.197,382.316 	"/>
	<polygon fill="#B5B5B6" points="522.535,443.414 522.535,532.064 640.988,532.064 581.762,487.74 	"/>
	<polygon fill="#B5B5B6" points="290.639,492.146 290.639,555.906 375.938,555.906 333.29,524.027 	"/>
	<polygon fill="#B5B5B6" points="192.079,527.48 192.079,560.32 235.568,560.32 213.824,543.9 	"/>
	<polygon points="467.794,335.123 467.794,380.066 512.738,380.066 490.267,357.596 	"/>
	<polygon points="266.857,336.432 266.857,412.463 342.891,412.463 304.876,374.449 	"/>
	
		<rect x="291.392" y="491.863" fill="none" stroke="#000000" stroke-width="5" stroke-linecap="round" width="84.269" height="65.168"/>
	
		<rect x="546.445" y="245.799" fill="none" stroke="#000000" stroke-width="5" stroke-linecap="round" width="95.504" height="73.035"/>
	
		<rect x="546.445" y="345.797" fill="none" stroke="#000000" stroke-width="5" stroke-linecap="round" width="95.504" height="73.033"/>
	
		<rect x="522.287" y="442.426" fill="none" stroke="#000000" stroke-width="5" stroke-linecap="round" width="119.662" height="89.887"/>
	
		<rect x="192.518" y="527.256" fill="none" stroke="#000000" stroke-width="5" stroke-linecap="round" width="42.697" height="32.584"/>
	<circle fill="none" stroke="#000000" stroke-width="5" stroke-miterlimit="10" cx="498.693" cy="253.663" r="6.909"/>
	<circle fill="none" stroke="#000000" stroke-width="5" stroke-miterlimit="10" cx="172.854" cy="253.663" r="6.909"/>
	<circle fill="none" stroke="#000000" stroke-width="5" stroke-miterlimit="10" cx="172.854" cy="528.942" r="6.909"/>
	<circle fill="none" stroke="#000000" stroke-width="5" stroke-miterlimit="10" cx="498.693" cy="528.942" r="6.909"/>
</g>
</svg>
