<?xml version="1.0" encoding="utf-8"?>
<!-- Generator: Adobe Illustrator 16.0.4, SVG Export Plug-In . SVG Version: 6.00 Build 0)  -->
<!DOCTYPE svg PUBLIC "-//W3C//DTD SVG 1.1//EN" "http://www.w3.org/Graphics/SVG/1.1/DTD/svg11.dtd">
<svg version="1.1" id="レイヤー_1" xmlns="http://www.w3.org/2000/svg" xmlns:xlink="http://www.w3.org/1999/xlink" x="0px"
	 y="0px" width="800px" height="800px" viewBox="0 0 800 800" enable-background="new 0 0 800 800" xml:space="preserve">
<g>
	<path fill="#0A441E" stroke="#000000" stroke-width="5" stroke-linecap="round" d="M633.524,512.932c0-76.403,0-152.808,0-229.211
		c0-21.72-17.606-39.325-39.326-39.325c-135.767,0-271.533,0-407.3,0c-21.72,0-39.325,17.605-39.325,39.325
		c0,76.403,0,152.808,0,229.211c0,21.719,17.605,39.325,39.325,39.325c135.767,0,271.534,0,407.3,0
		C615.917,552.257,633.524,534.649,633.524,512.932z M173.416,261.248c0-4.964,4.023-8.987,8.988-8.987
		c4.964,0,8.987,4.022,8.987,8.987c0,4.966-4.023,8.989-8.987,8.989C177.439,270.237,173.416,266.214,173.416,261.248z
		 M568.637,261.248c0-4.964,4.023-8.987,8.988-8.987c4.964,0,8.987,4.022,8.987,8.987c0,4.966-4.023,8.989-8.987,8.989
		S568.637,266.214,568.637,261.248z M173.416,535.402c0-4.965,4.023-8.988,8.988-8.988c4.964,0,8.987,4.023,8.987,8.988
		c0,4.965-4.024,8.988-8.988,8.988C177.439,544.391,173.416,540.367,173.416,535.402z M568.637,535.402
		c0-4.965,4.023-8.988,8.988-8.988c4.964,0,8.987,4.023,8.987,8.988s-4.023,8.988-8.987,8.988
		C572.661,544.392,568.637,540.367,568.637,535.402z"/>
	
		<rect x="479.523" y="311.81" fill="#262626" stroke="#000000" stroke-width="5" stroke-linecap="round" width="33.707" height="33.708"/>
	
		<rect x="428.469" y="445.517" fill="#262626" stroke="#000000" stroke-width="5" stroke-linecap="round" width="73.034" height="67.415"/>
	
		<rect x="362.457" y="300.574" fill="#262626" stroke="#000000" stroke-width="5" stroke-linecap="round" width="19.664" height="44.943"/>
	
		<rect x="332.965" y="376.416" fill="#262626" stroke="#000000" stroke-width="5" stroke-linecap="round" width="84.27" height="84.27"/>
	
		<rect x="248.696" y="345.519" fill="#262626" stroke="#000000" stroke-width="5" stroke-linecap="round" width="50.562" height="89.886"/>
	<circle fill="#B5B5B6" stroke="#000000" stroke-width="5" stroke-linecap="round" cx="542.232" cy="341.304" r="18.258"/>
	
		<rect x="342.795" y="274.103" fill="#262626" stroke="#000000" stroke-width="5" stroke-linecap="round" width="84.271" height="14.045"/>
	
		<rect x="568.918" y="272.485" fill="none" stroke="#000000" stroke-width="5" stroke-linecap="round" width="78.649" height="73.032"/>
	
		<rect x="527.344" y="366.865" fill="none" stroke="#000000" stroke-width="5" stroke-linecap="round" width="120.224" height="89.887"/>
	
		<rect x="568.918" y="272.485" fill="#C9CACA" stroke="#000000" stroke-width="5" stroke-linecap="round" width="78.649" height="73.032"/>
	
		<rect x="527.344" y="366.865" fill="#C9CACA" stroke="#000000" stroke-width="5" stroke-linecap="round" width="120.224" height="89.887"/>
	<polygon fill="#C9BC9C" stroke="#000000" stroke-width="5" stroke-linecap="round" points="192.516,322.484 147.573,322.484 
		147.573,334.871 159.426,334.871 159.426,377.512 147.573,377.512 147.573,389.899 192.516,389.899 	"/>
	<polygon fill="#C9BC9C" stroke="#000000" stroke-width="5" stroke-linecap="round" points="192.516,406.753 147.573,406.753 
		147.573,419.141 159.881,419.141 159.881,461.781 147.573,461.781 147.573,474.169 192.516,474.169 	"/>
	<path fill="#262626" d="M559.982,345.519h-35.5c1.904,8.048,9.119,14.044,17.75,14.044S558.078,353.566,559.982,345.519z"/>
	<g>
		
			<rect x="224.818" y="244.396" fill="#262626" stroke="#000000" stroke-width="5" stroke-linecap="round" width="331.459" height="28.089"/>
		<g>
			<g>
				<rect x="524.676" y="261.249" width="6.321" height="6.318"/>
				<rect x="524.676" y="249.312" width="6.321" height="6.318"/>
			</g>
			<g>
				<rect x="512.738" y="261.249" width="6.32" height="6.318"/>
				<rect x="512.738" y="249.312" width="6.32" height="6.318"/>
			</g>
			<g>
				<rect x="500.801" y="261.249" width="6.321" height="6.318"/>
				<rect x="500.801" y="249.312" width="6.321" height="6.318"/>
			</g>
			<g>
				<rect x="488.861" y="261.249" width="6.319" height="6.318"/>
				<rect x="488.861" y="249.312" width="6.319" height="6.318"/>
			</g>
			<g>
				<rect x="476.926" y="261.249" width="6.318" height="6.318"/>
				<rect x="476.926" y="249.312" width="6.318" height="6.318"/>
			</g>
			<g>
				<rect x="464.984" y="261.249" width="6.321" height="6.318"/>
				<rect x="464.984" y="249.312" width="6.321" height="6.318"/>
			</g>
			<g>
				<rect x="453.049" y="261.249" width="6.318" height="6.318"/>
				<rect x="453.049" y="249.312" width="6.318" height="6.318"/>
			</g>
			<g>
				<rect x="441.109" y="261.249" width="6.321" height="6.318"/>
				<rect x="441.109" y="249.312" width="6.321" height="6.318"/>
			</g>
			<g>
				<rect x="429.173" y="261.249" width="6.319" height="6.318"/>
				<rect x="429.173" y="249.312" width="6.319" height="6.318"/>
			</g>
			<g>
				<rect x="417.234" y="261.249" width="6.321" height="6.318"/>
				<rect x="417.234" y="249.312" width="6.321" height="6.318"/>
			</g>
			<g>
				<rect x="405.298" y="261.249" width="6.317" height="6.318"/>
				<rect x="405.298" y="249.312" width="6.317" height="6.318"/>
			</g>
			<g>
				<rect x="393.359" y="261.249" width="6.318" height="6.318"/>
				<rect x="393.359" y="249.312" width="6.318" height="6.318"/>
			</g>
			<g>
				<rect x="381.421" y="261.249" width="6.319" height="6.318"/>
				<rect x="381.421" y="249.312" width="6.319" height="6.318"/>
			</g>
			<g>
				<rect x="369.48" y="261.249" width="6.319" height="6.318"/>
				<rect x="369.48" y="249.312" width="6.319" height="6.318"/>
			</g>
			<g>
				<rect x="357.544" y="261.249" width="6.319" height="6.318"/>
				<rect x="357.544" y="249.312" width="6.319" height="6.318"/>
			</g>
			<g>
				<rect x="345.605" y="261.249" width="6.319" height="6.318"/>
				<rect x="345.605" y="249.312" width="6.319" height="6.318"/>
			</g>
			<g>
				<rect x="333.666" y="261.249" width="6.322" height="6.318"/>
				<rect x="333.666" y="249.312" width="6.322" height="6.318"/>
			</g>
			<g>
				<rect x="321.73" y="261.249" width="6.319" height="6.318"/>
				<rect x="321.73" y="249.312" width="6.319" height="6.318"/>
			</g>
			<g>
				<rect x="309.791" y="261.249" width="6.321" height="6.318"/>
				<rect x="309.791" y="249.312" width="6.321" height="6.318"/>
			</g>
			<g>
				<rect x="297.853" y="261.249" width="6.319" height="6.318"/>
				<rect x="297.853" y="249.312" width="6.319" height="6.318"/>
			</g>
			<g>
				<rect x="285.915" y="261.249" width="6.319" height="6.318"/>
				<rect x="285.915" y="249.312" width="6.319" height="6.318"/>
			</g>
			<g>
				<rect x="273.976" y="261.249" width="6.321" height="6.318"/>
				<rect x="273.976" y="249.312" width="6.321" height="6.318"/>
			</g>
			<g>
				<rect x="262.038" y="261.249" width="6.321" height="6.318"/>
				<rect x="262.038" y="249.312" width="6.321" height="6.318"/>
			</g>
			<g>
				<rect x="250.1" y="261.249" width="6.32" height="6.318"/>
				<rect x="250.1" y="249.312" width="6.32" height="6.318"/>
			</g>
			<g>
				<rect x="238.163" y="261.249" width="6.321" height="6.318"/>
				<rect x="238.163" y="249.312" width="6.321" height="6.318"/>
			</g>
			<g>
				<rect x="536.615" y="261.249" width="6.32" height="6.318"/>
				<rect x="536.615" y="249.312" width="6.32" height="6.318"/>
			</g>
		</g>
	</g>
	<g>
		
			<rect x="224.818" y="524.168" fill="#262626" stroke="#000000" stroke-width="5" stroke-linecap="round" width="331.459" height="28.089"/>
		<g>
			<g>
				<rect x="524.676" y="541.021" width="6.321" height="6.318"/>
				<rect x="524.676" y="529.083" width="6.321" height="6.318"/>
			</g>
			<g>
				<rect x="512.738" y="541.021" width="6.32" height="6.318"/>
				<rect x="512.738" y="529.083" width="6.32" height="6.318"/>
			</g>
			<g>
				<rect x="500.801" y="541.021" width="6.321" height="6.318"/>
				<rect x="500.801" y="529.083" width="6.321" height="6.318"/>
			</g>
			<g>
				<rect x="488.861" y="541.021" width="6.319" height="6.318"/>
				<rect x="488.861" y="529.083" width="6.319" height="6.318"/>
			</g>
			<g>
				<rect x="476.926" y="541.021" width="6.318" height="6.318"/>
				<rect x="476.926" y="529.083" width="6.318" height="6.318"/>
			</g>
			<g>
				<rect x="464.984" y="541.021" width="6.321" height="6.318"/>
				<rect x="464.984" y="529.083" width="6.321" height="6.318"/>
			</g>
			<g>
				<rect x="453.049" y="541.021" width="6.318" height="6.318"/>
				<rect x="453.049" y="529.083" width="6.318" height="6.318"/>
			</g>
			<g>
				<rect x="441.109" y="541.021" width="6.321" height="6.318"/>
				<rect x="441.109" y="529.083" width="6.321" height="6.318"/>
			</g>
			<g>
				<rect x="429.173" y="541.021" width="6.319" height="6.318"/>
				<rect x="429.173" y="529.083" width="6.319" height="6.318"/>
			</g>
			<g>
				<rect x="417.234" y="541.021" width="6.321" height="6.318"/>
				<rect x="417.234" y="529.083" width="6.321" height="6.318"/>
			</g>
			<g>
				<rect x="405.298" y="541.021" width="6.317" height="6.318"/>
				<rect x="405.298" y="529.083" width="6.317" height="6.318"/>
			</g>
			<g>
				<rect x="393.359" y="541.021" width="6.318" height="6.318"/>
				<rect x="393.359" y="529.083" width="6.318" height="6.318"/>
			</g>
			<g>
				<rect x="381.42" y="541.021" width="6.319" height="6.318"/>
				<rect x="381.421" y="529.083" width="6.319" height="6.318"/>
			</g>
			<g>
				<rect x="369.48" y="541.021" width="6.319" height="6.318"/>
				<rect x="369.48" y="529.083" width="6.319" height="6.318"/>
			</g>
			<g>
				<rect x="357.543" y="541.021" width="6.319" height="6.318"/>
				<rect x="357.544" y="529.083" width="6.319" height="6.318"/>
			</g>
			<g>
				<rect x="345.605" y="541.021" width="6.319" height="6.318"/>
				<rect x="345.605" y="529.083" width="6.319" height="6.318"/>
			</g>
			<g>
				<rect x="333.666" y="541.021" width="6.322" height="6.318"/>
				<rect x="333.666" y="529.083" width="6.322" height="6.318"/>
			</g>
			<g>
				<rect x="321.73" y="541.021" width="6.319" height="6.318"/>
				<rect x="321.73" y="529.083" width="6.319" height="6.318"/>
			</g>
			<g>
				<rect x="309.791" y="541.021" width="6.321" height="6.318"/>
				<rect x="309.791" y="529.083" width="6.321" height="6.318"/>
			</g>
			<g>
				<rect x="297.852" y="541.021" width="6.319" height="6.318"/>
				<rect x="297.853" y="529.083" width="6.319" height="6.318"/>
			</g>
			<g>
				<rect x="285.915" y="541.021" width="6.319" height="6.318"/>
				<rect x="285.915" y="529.083" width="6.319" height="6.318"/>
			</g>
			<g>
				<rect x="273.975" y="541.021" width="6.321" height="6.318"/>
				<rect x="273.976" y="529.083" width="6.321" height="6.318"/>
			</g>
			<g>
				<rect x="262.038" y="541.021" width="6.321" height="6.318"/>
				<rect x="262.038" y="529.083" width="6.321" height="6.318"/>
			</g>
			<g>
				<rect x="250.099" y="541.021" width="6.32" height="6.318"/>
				<rect x="250.1" y="529.083" width="6.32" height="6.318"/>
			</g>
			<g>
				<rect x="238.163" y="541.021" width="6.321" height="6.318"/>
				<rect x="238.163" y="529.083" width="6.321" height="6.318"/>
			</g>
			<g>
				<rect x="536.615" y="541.021" width="6.32" height="6.318"/>
				<rect x="536.615" y="529.083" width="6.32" height="6.318"/>
			</g>
		</g>
	</g>
	<g>
		<rect x="399.679" y="277.966" fill="#C9CACA" width="6.321" height="6.318"/>
		<rect x="387.739" y="277.966" fill="#C9CACA" width="6.32" height="6.318"/>
		<rect x="375.801" y="277.966" fill="#C9CACA" width="6.32" height="6.318"/>
		<rect x="363.863" y="277.966" fill="#C9CACA" width="6.32" height="6.318"/>
		<rect x="411.617" y="277.966" fill="#C9CACA" width="6.322" height="6.318"/>
		<rect x="351.923" y="277.966" fill="#C9CACA" width="6.32" height="6.318"/>
	</g>
	<polygon fill="#B5B5B6" points="568.918,272.485 568.918,345.519 647.567,345.519 608.243,309.001 	"/>
	<polygon fill="#B5B5B6" points="527.84,367.088 527.84,456.529 645.835,456.529 586.838,411.81 	"/>
	<polygon points="333.322,376.44 333.322,460.685 416.02,460.685 374.67,418.562 	"/>
	<polygon points="248.698,344.227 248.698,435.403 298.569,435.403 273.633,389.816 	"/>
	<polygon points="428.469,445.6 428.469,512.932 501.287,512.932 464.878,479.267 	"/>
	<polygon points="479.523,313.185 479.523,344.144 513.005,344.144 496.265,328.664 	"/>
	<rect x="361.896" y="300.574" width="20.226" height="12.609"/>
	
		<rect x="568.918" y="272.485" fill="none" stroke="#000000" stroke-width="5" stroke-linecap="round" width="78.649" height="73.032"/>
	
		<rect x="527.344" y="366.865" fill="none" stroke="#000000" stroke-width="5" stroke-linecap="round" width="120.224" height="89.887"/>
	<circle fill="none" stroke="#000000" stroke-width="5" stroke-linecap="round" cx="542.232" cy="341.304" r="18.258"/>
</g>
</svg>
