<?xml version="1.0" encoding="utf-8"?>
<!-- Generator: Adobe Illustrator 16.0.4, SVG Export Plug-In . SVG Version: 6.00 Build 0)  -->
<!DOCTYPE svg PUBLIC "-//W3C//DTD SVG 1.1//EN" "http://www.w3.org/Graphics/SVG/1.1/DTD/svg11.dtd">
<svg version="1.1" id="レイヤー_1" xmlns="http://www.w3.org/2000/svg" xmlns:xlink="http://www.w3.org/1999/xlink" x="0px"
	 y="0px" width="800px" height="800px" viewBox="0 0 800 800" enable-background="new 0 0 800 800" xml:space="preserve">
<g>
	<path fill="#006934" stroke="#000000" stroke-width="5" stroke-linecap="round" d="M463.163,214.1c-45.35,0-90.696,0-136.044,0
		c-9.395,0-17.006,7.614-17.006,17.005c0,111.481,0,222.963,0,334.443c0,9.392,7.612,17.005,17.006,17.005
		c45.348,0,90.695,0,136.044,0c9.393,0,17.005-7.614,17.005-17.005c0-111.48,0-222.962,0-334.443
		C480.168,221.712,472.554,214.1,463.163,214.1z M329.952,570.08c-4.07,0-7.369-3.298-7.369-7.367c0-4.07,3.299-7.371,7.369-7.371
		c4.072,0,7.369,3.301,7.369,7.371S334.024,570.08,329.952,570.08z M329.952,241.308c-4.07,0-7.369-3.3-7.369-7.368
		c0-4.07,3.299-7.371,7.369-7.371c4.072,0,7.369,3.3,7.369,7.371C337.321,238.01,334.024,241.308,329.952,241.308z M460.329,570.08
		c-4.071,0-7.37-3.298-7.37-7.367c0-4.07,3.299-7.371,7.37-7.371c4.068,0,7.368,3.301,7.368,7.371S464.397,570.08,460.329,570.08z
		 M460.329,241.308c-4.071,0-7.37-3.3-7.37-7.368c0-4.07,3.299-7.371,7.37-7.371c4.068,0,7.368,3.3,7.368,7.371
		C467.697,238.01,464.397,241.308,460.329,241.308z"/>
	
		<rect x="352.196" y="517.946" fill="#C9CACA" stroke="#000000" stroke-width="5" stroke-linecap="round" width="73.034" height="64.606"/>
	
		<rect x="372.974" y="378.634" fill="#262626" stroke="#000000" stroke-width="5" stroke-linecap="round" width="65.738" height="65.739"/>
	<polygon fill="#727171" stroke="#000000" stroke-width="5" stroke-linecap="round" points="412.591,565.698 362.028,565.698 
		362.028,582.553 415.398,582.553 415.398,576.931 	"/>
	<polygon fill="none" stroke="#000000" stroke-width="5" stroke-linecap="round" points="412.591,565.698 362.029,565.698 
		362.029,582.553 415.397,582.553 415.397,576.934 	"/>
	<rect x="439.522" y="476.645" fill="#C9CACA" width="43.299" height="65.188"/>
	<rect x="452.443" y="256.42" fill="#C9CACA" width="32.585" height="44.943"/>
	<rect x="452.443" y="329.453" fill="#C9CACA" width="32.585" height="44.944"/>
	
		<rect x="366.504" y="255.455" fill="none" stroke="#FFFFFF" stroke-width="2" stroke-linecap="round" width="14.088" height="32.602"/>
	
		<rect x="348.718" y="255.455" fill="none" stroke="#FFFFFF" stroke-width="2" stroke-linecap="round" width="14.085" height="32.602"/>
	<g>
		
			<rect x="315.937" y="255.584" fill="none" stroke="#FFFFFF" stroke-width="2" stroke-linecap="round" width="29.196" height="284.812"/>
	</g>
	<polygon points="372.992,444.094 438.713,444.094 438.713,379.58 405.853,411.839 	"/>
	<polygon fill="#B5B5B6" points="461.171,509.234 440.32,540.983 482.021,540.983 482.021,477.485 	"/>
	<polygon fill="#B5B5B6" points="468.734,278.891 453.044,300.779 484.425,300.779 484.425,257 	"/>
	<polygon fill="#B5B5B6" points="468.734,351.924 453.044,373.813 484.425,373.813 484.425,330.033 	"/>
	<g>
		<g>
			<path fill="#C9A063" d="M324.053,274.599c-2.807,0-5.08,2.271-5.08,5.075c0,2.814,2.273,5.078,5.08,5.078
				c2.803,0,5.078-2.264,5.078-5.078C329.131,276.871,326.854,274.599,324.053,274.599z M324.053,282.816
				c-1.732,0-3.14-1.398-3.14-3.143c0-1.729,1.405-3.137,3.14-3.137c1.731,0,3.141,1.406,3.141,3.137
				C327.191,281.416,325.784,282.816,324.053,282.816z"/>
			<path fill="#C9A063" d="M324.053,290.369c-2.807,0-5.08,2.274-5.08,5.084s2.273,5.078,5.08,5.078
				c2.803,0,5.078-2.271,5.078-5.078C329.131,292.645,326.854,290.369,324.053,290.369z M324.053,298.591
				c-1.732,0-3.14-1.405-3.14-3.14s1.405-3.142,3.14-3.142c1.731,0,3.141,1.405,3.141,3.142
				C327.191,297.186,325.784,298.591,324.053,298.591z"/>
			<path fill="#C9A063" d="M324.053,306.15c-2.807,0-5.08,2.275-5.08,5.08c0,2.809,2.273,5.082,5.08,5.082
				c2.803,0,5.078-2.273,5.078-5.082C329.131,308.426,326.854,306.15,324.053,306.15z M324.053,314.369
				c-1.732,0-3.14-1.402-3.14-3.14c0-1.735,1.405-3.141,3.14-3.141c1.731,0,3.141,1.403,3.141,3.141
				C327.191,312.966,325.784,314.369,324.053,314.369z"/>
			<path fill="#C9A063" d="M324.053,321.928c-2.807,0-5.08,2.275-5.08,5.078c0,2.814,2.273,5.082,5.08,5.082
				c2.803,0,5.078-2.268,5.078-5.082C329.131,324.203,326.854,321.928,324.053,321.928z M324.053,330.147
				c-1.732,0-3.14-1.401-3.14-3.142c0-1.732,1.405-3.139,3.14-3.139c1.731,0,3.141,1.404,3.141,3.139
				C327.191,328.746,325.784,330.147,324.053,330.147z"/>
			<path fill="#C9A063" d="M324.053,337.705c-2.807,0-5.08,2.271-5.08,5.074c0,2.811,2.273,5.078,5.08,5.078
				c2.803,0,5.078-2.27,5.078-5.078C329.131,339.979,326.854,337.705,324.053,337.705z M324.053,345.918
				c-1.732,0-3.14-1.399-3.14-3.139c0-1.734,1.405-3.141,3.14-3.141c1.731,0,3.141,1.404,3.141,3.141
				C327.191,344.519,325.784,345.918,324.053,345.918z"/>
			<path fill="#C9A063" d="M324.053,353.48c-2.807,0-5.08,2.273-5.08,5.078c0,2.811,2.273,5.077,5.08,5.077
				c2.803,0,5.078-2.269,5.078-5.077C329.131,355.754,326.854,353.48,324.053,353.48z M324.053,361.697
				c-1.732,0-3.14-1.4-3.14-3.141c0-1.732,1.405-3.139,3.14-3.139c1.731,0,3.141,1.404,3.141,3.139
				C327.191,360.295,325.784,361.697,324.053,361.697z"/>
			<path fill="#C9A063" d="M324.053,369.252c-2.807,0-5.08,2.272-5.08,5.076c0,2.81,2.273,5.082,5.08,5.082
				c2.803,0,5.078-2.272,5.078-5.082C329.131,371.526,326.854,369.252,324.053,369.252z M324.053,377.467
				c-1.732,0-3.14-1.4-3.14-3.139c0-1.734,1.405-3.141,3.14-3.141c1.731,0,3.141,1.404,3.141,3.141
				C327.191,376.066,325.784,377.467,324.053,377.467z"/>
			<path fill="#C9A063" d="M324.053,385.026c-2.807,0-5.08,2.269-5.08,5.075c0,2.811,2.273,5.077,5.08,5.077
				c2.803,0,5.078-2.269,5.078-5.077S326.854,385.026,324.053,385.026z M324.053,393.24c-1.732,0-3.14-1.4-3.14-3.139
				c0-1.734,1.405-3.143,3.14-3.143c1.731,0,3.141,1.406,3.141,3.143C327.191,391.839,325.784,393.24,324.053,393.24z"/>
			<path fill="#C9A063" d="M324.053,416.573c-2.807,0-5.08,2.275-5.08,5.084c0,2.811,2.273,5.078,5.08,5.078
				c2.803,0,5.078-2.27,5.078-5.078C329.131,418.85,326.854,416.573,324.053,416.573z M324.053,424.796
				c-1.732,0-3.14-1.405-3.14-3.14s1.405-3.142,3.14-3.142c1.731,0,3.141,1.405,3.141,3.142
				C327.191,423.391,325.784,424.796,324.053,424.796z"/>
			<path fill="#C9A063" d="M324.053,432.353c-2.807,0-5.08,2.278-5.08,5.082c0,2.812,2.273,5.078,5.08,5.078
				c2.803,0,5.078-2.269,5.078-5.078C329.131,434.631,326.854,432.353,324.053,432.353z M324.053,440.573
				c-1.732,0-3.14-1.399-3.14-3.141c0-1.733,1.405-3.143,3.14-3.143c1.731,0,3.141,1.407,3.141,3.143
				C327.191,439.173,325.784,440.573,324.053,440.573z"/>
			<path fill="#C9A063" d="M324.053,448.133c-2.807,0-5.08,2.275-5.08,5.078c0,2.813,2.273,5.084,5.08,5.084
				c2.803,0,5.078-2.271,5.078-5.084C329.131,450.409,326.854,448.133,324.053,448.133z M324.053,456.353
				c-1.732,0-3.14-1.402-3.14-3.142c0-1.732,1.405-3.14,3.14-3.14c1.731,0,3.141,1.405,3.141,3.14
				C327.191,454.949,325.784,456.353,324.053,456.353z"/>
			<path fill="#C9A063" d="M324.053,463.912c-2.807,0-5.08,2.271-5.08,5.073c0,2.811,2.273,5.078,5.08,5.078
				c2.803,0,5.078-2.27,5.078-5.078C329.131,466.184,326.854,463.912,324.053,463.912z M324.053,472.124
				c-1.732,0-3.14-1.401-3.14-3.14c0-1.733,1.405-3.141,3.14-3.141c1.731,0,3.141,1.405,3.141,3.141
				C327.191,470.723,325.784,472.124,324.053,472.124z"/>
			<path fill="#C9A063" d="M324.053,479.681c-2.807,0-5.08,2.271-5.08,5.078c0,2.812,2.273,5.078,5.08,5.078
				c2.803,0,5.078-2.269,5.078-5.078C329.131,481.953,326.854,479.681,324.053,479.681z M324.053,487.899
				c-1.732,0-3.14-1.405-3.14-3.141c0-1.732,1.405-3.14,3.14-3.14c1.731,0,3.141,1.405,3.141,3.14
				C327.191,486.493,325.784,487.899,324.053,487.899z"/>
			<path fill="#C9A063" d="M324.053,495.457c-2.807,0-5.08,2.272-5.08,5.075c0,2.811,2.273,5.082,5.08,5.082
				c2.803,0,5.078-2.271,5.078-5.082C329.131,497.731,326.854,495.457,324.053,495.457z M324.053,503.672
				c-1.732,0-3.14-1.4-3.14-3.14c0-1.733,1.405-3.141,3.14-3.141c1.731,0,3.141,1.405,3.141,3.141
				C327.191,502.271,325.784,503.672,324.053,503.672z"/>
			<path fill="#C9A063" d="M324.053,511.232c-2.807,0-5.08,2.272-5.08,5.074c0,2.814,2.273,5.078,5.08,5.078
				c2.803,0,5.078-2.264,5.078-5.078C329.131,513.505,326.854,511.232,324.053,511.232z M324.053,519.445
				c-1.732,0-3.14-1.399-3.14-3.14c0-1.732,1.405-3.139,3.14-3.139c1.731,0,3.141,1.404,3.141,3.139
				C327.191,518.045,325.784,519.445,324.053,519.445z"/>
			<path fill="#C9A063" d="M324.053,527.005c-2.807,0-5.08,2.276-5.08,5.078c0,2.812,2.273,5.08,5.08,5.08
				c2.803,0,5.078-2.27,5.078-5.08C329.131,529.282,326.854,527.005,324.053,527.005z M324.053,535.225
				c-1.732,0-3.14-1.401-3.14-3.142c0-1.731,1.405-3.14,3.14-3.14c1.731,0,3.141,1.406,3.141,3.14
				C327.191,533.822,325.784,535.225,324.053,535.225z"/>
			<path fill="#C9A063" d="M324.053,258.82c-2.807,0-5.08,2.276-5.08,5.079c0,2.812,2.273,5.082,5.08,5.082
				c2.803,0,5.078-2.271,5.078-5.082C329.131,261.098,326.854,258.82,324.053,258.82z M324.053,267.039
				c-1.732,0-3.14-1.401-3.14-3.141c0-1.734,1.405-3.141,3.14-3.141c1.731,0,3.141,1.404,3.141,3.141
				C327.191,265.638,325.784,267.039,324.053,267.039z"/>
			<path fill="#C9A063" d="M324.053,400.8c-2.807,0-5.08,2.276-5.08,5.079c0,2.812,2.273,5.078,5.08,5.078
				c2.803,0,5.078-2.269,5.078-5.078C329.131,403.077,326.854,400.8,324.053,400.8z M324.053,409.02c-1.732,0-3.14-1.401-3.14-3.141
				c0-1.732,1.405-3.141,3.14-3.141c1.731,0,3.141,1.406,3.141,3.141C327.191,407.617,325.784,409.02,324.053,409.02z"/>
		</g>
		<g>
			<path fill="#C9A063" d="M337.02,274.599c-2.808,0-5.081,2.271-5.081,5.075c0,2.814,2.273,5.078,5.081,5.078
				c2.804,0,5.079-2.264,5.079-5.078C342.099,276.871,339.822,274.599,337.02,274.599z M337.02,282.816
				c-1.733,0-3.14-1.398-3.14-3.143c0-1.729,1.404-3.137,3.14-3.137c1.731,0,3.141,1.406,3.141,3.137
				C340.159,281.416,338.752,282.816,337.02,282.816z"/>
			<path fill="#C9A063" d="M337.02,290.369c-2.808,0-5.081,2.274-5.081,5.084s2.273,5.078,5.081,5.078
				c2.804,0,5.079-2.271,5.079-5.078C342.099,292.645,339.822,290.369,337.02,290.369z M337.02,298.591
				c-1.733,0-3.14-1.405-3.14-3.14s1.404-3.142,3.14-3.142c1.731,0,3.141,1.405,3.141,3.142
				C340.159,297.186,338.752,298.591,337.02,298.591z"/>
			<path fill="#C9A063" d="M337.02,306.15c-2.808,0-5.081,2.275-5.081,5.08c0,2.809,2.273,5.082,5.081,5.082
				c2.804,0,5.079-2.273,5.079-5.082C342.099,308.426,339.822,306.15,337.02,306.15z M337.02,314.369c-1.733,0-3.14-1.402-3.14-3.14
				c0-1.735,1.404-3.141,3.14-3.141c1.731,0,3.141,1.403,3.141,3.141C340.159,312.966,338.752,314.369,337.02,314.369z"/>
			<path fill="#C9A063" d="M337.02,321.928c-2.808,0-5.081,2.275-5.081,5.078c0,2.814,2.273,5.082,5.081,5.082
				c2.804,0,5.079-2.268,5.079-5.082C342.099,324.203,339.822,321.928,337.02,321.928z M337.02,330.147
				c-1.733,0-3.14-1.401-3.14-3.142c0-1.732,1.404-3.139,3.14-3.139c1.731,0,3.141,1.404,3.141,3.139
				C340.159,328.746,338.752,330.147,337.02,330.147z"/>
			<path fill="#C9A063" d="M337.02,337.705c-2.808,0-5.081,2.271-5.081,5.074c0,2.811,2.273,5.078,5.081,5.078
				c2.804,0,5.079-2.27,5.079-5.078C342.099,339.979,339.822,337.705,337.02,337.705z M337.02,345.918
				c-1.733,0-3.14-1.399-3.14-3.139c0-1.734,1.404-3.141,3.14-3.141c1.731,0,3.141,1.404,3.141,3.141
				C340.159,344.519,338.752,345.918,337.02,345.918z"/>
			<path fill="#C9A063" d="M337.02,353.48c-2.808,0-5.081,2.273-5.081,5.078c0,2.811,2.273,5.077,5.081,5.077
				c2.804,0,5.079-2.269,5.079-5.077C342.099,355.754,339.822,353.48,337.02,353.48z M337.02,361.697c-1.733,0-3.14-1.4-3.14-3.141
				c0-1.732,1.404-3.139,3.14-3.139c1.731,0,3.141,1.404,3.141,3.139C340.159,360.295,338.752,361.697,337.02,361.697z"/>
			<path fill="#C9A063" d="M337.02,369.252c-2.808,0-5.081,2.272-5.081,5.076c0,2.81,2.273,5.082,5.081,5.082
				c2.804,0,5.079-2.272,5.079-5.082C342.099,371.526,339.822,369.252,337.02,369.252z M337.02,377.467
				c-1.733,0-3.14-1.4-3.14-3.139c0-1.734,1.404-3.141,3.14-3.141c1.731,0,3.141,1.404,3.141,3.141
				C340.159,376.066,338.752,377.467,337.02,377.467z"/>
			<path fill="#C9A063" d="M337.02,385.026c-2.808,0-5.081,2.269-5.081,5.075c0,2.811,2.273,5.077,5.081,5.077
				c2.804,0,5.079-2.269,5.079-5.077S339.822,385.026,337.02,385.026z M337.02,393.24c-1.733,0-3.14-1.4-3.14-3.139
				c0-1.734,1.404-3.143,3.14-3.143c1.731,0,3.141,1.406,3.141,3.143S338.752,393.24,337.02,393.24z"/>
			<path fill="#C9A063" d="M337.02,416.573c-2.808,0-5.081,2.275-5.081,5.084c0,2.811,2.273,5.078,5.081,5.078
				c2.804,0,5.079-2.27,5.079-5.078C342.099,418.85,339.822,416.573,337.02,416.573z M337.02,424.796c-1.733,0-3.14-1.405-3.14-3.14
				s1.404-3.142,3.14-3.142c1.731,0,3.141,1.405,3.141,3.142C340.159,423.391,338.752,424.796,337.02,424.796z"/>
			<path fill="#C9A063" d="M337.02,432.353c-2.808,0-5.081,2.278-5.081,5.082c0,2.812,2.273,5.078,5.081,5.078
				c2.804,0,5.079-2.269,5.079-5.078C342.099,434.631,339.822,432.353,337.02,432.353z M337.02,440.573
				c-1.733,0-3.14-1.399-3.14-3.141c0-1.733,1.404-3.143,3.14-3.143c1.731,0,3.141,1.407,3.141,3.143
				C340.159,439.173,338.752,440.573,337.02,440.573z"/>
			<path fill="#C9A063" d="M337.02,448.133c-2.808,0-5.081,2.275-5.081,5.078c0,2.813,2.273,5.084,5.081,5.084
				c2.804,0,5.079-2.271,5.079-5.084C342.099,450.409,339.822,448.133,337.02,448.133z M337.02,456.353
				c-1.733,0-3.14-1.402-3.14-3.142c0-1.732,1.404-3.14,3.14-3.14c1.731,0,3.141,1.405,3.141,3.14
				C340.159,454.949,338.752,456.353,337.02,456.353z"/>
			<path fill="#C9A063" d="M337.02,463.912c-2.808,0-5.081,2.271-5.081,5.073c0,2.811,2.273,5.078,5.081,5.078
				c2.804,0,5.079-2.27,5.079-5.078C342.099,466.184,339.822,463.912,337.02,463.912z M337.02,472.124
				c-1.733,0-3.14-1.401-3.14-3.14c0-1.733,1.404-3.141,3.14-3.141c1.731,0,3.141,1.405,3.141,3.141
				C340.159,470.723,338.752,472.124,337.02,472.124z"/>
			<path fill="#C9A063" d="M337.02,479.681c-2.808,0-5.081,2.271-5.081,5.078c0,2.812,2.273,5.078,5.081,5.078
				c2.804,0,5.079-2.269,5.079-5.078C342.099,481.953,339.822,479.681,337.02,479.681z M337.02,487.899
				c-1.733,0-3.14-1.405-3.14-3.141c0-1.732,1.404-3.14,3.14-3.14c1.731,0,3.141,1.405,3.141,3.14
				C340.159,486.493,338.752,487.899,337.02,487.899z"/>
			<path fill="#C9A063" d="M337.02,495.457c-2.808,0-5.081,2.272-5.081,5.075c0,2.811,2.273,5.082,5.081,5.082
				c2.804,0,5.079-2.271,5.079-5.082C342.099,497.731,339.822,495.457,337.02,495.457z M337.02,503.672c-1.733,0-3.14-1.4-3.14-3.14
				c0-1.733,1.404-3.141,3.14-3.141c1.731,0,3.141,1.405,3.141,3.141C340.159,502.271,338.752,503.672,337.02,503.672z"/>
			<path fill="#C9A063" d="M337.02,511.232c-2.808,0-5.081,2.272-5.081,5.074c0,2.814,2.273,5.078,5.081,5.078
				c2.804,0,5.079-2.264,5.079-5.078C342.099,513.505,339.822,511.232,337.02,511.232z M337.02,519.445
				c-1.733,0-3.14-1.399-3.14-3.14c0-1.732,1.404-3.139,3.14-3.139c1.731,0,3.141,1.404,3.141,3.139
				C340.159,518.045,338.752,519.445,337.02,519.445z"/>
			<path fill="#C9A063" d="M337.02,527.005c-2.808,0-5.081,2.276-5.081,5.078c0,2.812,2.273,5.08,5.081,5.08
				c2.804,0,5.079-2.27,5.079-5.08C342.099,529.282,339.822,527.005,337.02,527.005z M337.02,535.225
				c-1.733,0-3.14-1.401-3.14-3.142c0-1.731,1.404-3.14,3.14-3.14c1.731,0,3.141,1.406,3.141,3.14
				C340.159,533.822,338.752,535.225,337.02,535.225z"/>
			<path fill="#C9A063" d="M337.02,258.82c-2.808,0-5.081,2.276-5.081,5.079c0,2.812,2.273,5.082,5.081,5.082
				c2.804,0,5.079-2.271,5.079-5.082C342.099,261.098,339.822,258.82,337.02,258.82z M337.02,267.039
				c-1.733,0-3.14-1.401-3.14-3.141c0-1.734,1.404-3.141,3.14-3.141c1.731,0,3.141,1.404,3.141,3.141
				C340.159,265.638,338.752,267.039,337.02,267.039z"/>
			<path fill="#C9A063" d="M337.02,400.8c-2.808,0-5.081,2.276-5.081,5.079c0,2.812,2.273,5.078,5.081,5.078
				c2.804,0,5.079-2.269,5.079-5.078C342.099,403.077,339.822,400.8,337.02,400.8z M337.02,409.02c-1.733,0-3.14-1.401-3.14-3.141
				c0-1.732,1.404-3.141,3.14-3.141c1.731,0,3.141,1.406,3.141,3.141C340.159,407.617,338.752,409.02,337.02,409.02z"/>
		</g>
	</g>
	<g>
		<path fill="#C9A063" d="M355.761,258.82c-2.806,0-5.079,2.276-5.079,5.084c0,2.811,2.273,5.077,5.079,5.077
			c2.804,0,5.078-2.269,5.078-5.077C360.839,261.098,358.563,258.82,355.761,258.82z M355.761,267.043
			c-1.732,0-3.14-1.405-3.14-3.14c0-1.735,1.405-3.142,3.14-3.142c1.732,0,3.142,1.404,3.142,3.142
			C358.9,265.638,357.493,267.043,355.761,267.043z"/>
		<path fill="#C9A063" d="M355.761,274.599c-2.806,0-5.079,2.278-5.079,5.083c0,2.812,2.273,5.078,5.079,5.078
			c2.804,0,5.078-2.268,5.078-5.078C360.839,276.877,358.563,274.599,355.761,274.599z M355.761,282.82
			c-1.732,0-3.14-1.399-3.14-3.14c0-1.733,1.405-3.144,3.14-3.144c1.732,0,3.142,1.407,3.142,3.144
			C358.9,281.42,357.493,282.82,355.761,282.82z"/>
	</g>
	<g>
		<path fill="#C9A063" d="M373.549,258.82c-2.806,0-5.08,2.276-5.08,5.084c0,2.811,2.274,5.077,5.08,5.077
			c2.804,0,5.078-2.269,5.078-5.077C378.627,261.098,376.352,258.82,373.549,258.82z M373.549,267.043
			c-1.731,0-3.139-1.405-3.139-3.14c0-1.735,1.404-3.142,3.139-3.142c1.732,0,3.141,1.404,3.141,3.142
			C376.688,265.638,375.281,267.043,373.549,267.043z"/>
		<path fill="#C9A063" d="M373.549,274.599c-2.806,0-5.08,2.278-5.08,5.083c0,2.812,2.274,5.078,5.08,5.078
			c2.804,0,5.078-2.268,5.078-5.078C378.627,276.877,376.352,274.599,373.549,274.599z M373.549,282.82
			c-1.731,0-3.139-1.399-3.139-3.14c0-1.733,1.404-3.144,3.139-3.144c1.732,0,3.141,1.407,3.141,3.144
			C376.688,281.42,375.281,282.82,373.549,282.82z"/>
	</g>
	<path fill="#C6B626" d="M329.952,544.287c-10.175,0-18.421,8.251-18.421,18.424c0,10.175,8.246,18.425,18.421,18.425
		c10.176,0,18.423-8.25,18.423-18.425C348.375,552.538,340.128,544.287,329.952,544.287z M329.952,570.079
		c-4.07,0-7.369-3.3-7.369-7.369c0-4.07,3.299-7.371,7.369-7.371c4.072,0,7.369,3.301,7.369,7.371S334.024,570.079,329.952,570.079z
		"/>
	<path fill="#C6B626" d="M460.329,544.287c-10.177,0-18.425,8.251-18.425,18.424c0,10.175,8.248,18.425,18.425,18.425
		c10.175,0,18.421-8.25,18.421-18.425C478.75,552.538,470.504,544.287,460.329,544.287z M460.329,570.079
		c-4.071,0-7.37-3.3-7.37-7.369c0-4.07,3.299-7.371,7.37-7.371c4.068,0,7.368,3.301,7.368,7.371S464.397,570.079,460.329,570.079z"
		/>
	<path fill="#C6B626" d="M460.329,215.515c-10.177,0-18.425,8.251-18.425,18.425s8.248,18.422,18.425,18.422
		c10.175,0,18.421-8.248,18.421-18.422C478.75,223.764,470.504,215.515,460.329,215.515z M460.329,241.306
		c-4.071,0-7.37-3.301-7.37-7.368c0-4.07,3.299-7.371,7.37-7.371c4.068,0,7.368,3.3,7.368,7.371
		C467.697,238.006,464.397,241.306,460.329,241.306z"/>
	
		<rect x="439.522" y="476.645" fill="none" stroke="#000000" stroke-width="5" stroke-linecap="round" width="42.696" height="64.604"/>
	<path fill="#C6B626" d="M329.952,215.515c-10.175,0-18.421,8.251-18.421,18.425s8.246,18.422,18.421,18.422
		c10.176,0,18.423-8.248,18.423-18.422C348.375,223.764,340.128,215.515,329.952,215.515z M329.952,241.306
		c-4.07,0-7.369-3.301-7.369-7.368c0-4.07,3.299-7.371,7.369-7.371c4.072,0,7.369,3.3,7.369,7.371
		C337.321,238.006,334.024,241.306,329.952,241.306z"/>
	
		<rect x="452.443" y="329.453" fill="none" stroke="#000000" stroke-width="5" stroke-linecap="round" width="32.584" height="44.944"/>
	
		<rect x="452.443" y="256.422" fill="none" stroke="#000000" stroke-width="5" stroke-linecap="round" width="32.584" height="44.941"/>
	<circle fill="none" stroke="#000000" stroke-width="5" stroke-miterlimit="10" cx="329.954" cy="233.938" r="6.91"/>
	<circle fill="none" stroke="#000000" stroke-width="5" stroke-miterlimit="10" cx="460.327" cy="233.938" r="6.91"/>
	<circle fill="none" stroke="#000000" stroke-width="5" stroke-miterlimit="10" cx="460.327" cy="562.712" r="6.91"/>
	<circle fill="none" stroke="#000000" stroke-width="5" stroke-miterlimit="10" cx="329.954" cy="562.712" r="6.91"/>
</g>
</svg>
