<?xml version="1.0" encoding="utf-8"?>
<!-- Generator: Adobe Illustrator 16.0.4, SVG Export Plug-In . SVG Version: 6.00 Build 0)  -->
<!DOCTYPE svg PUBLIC "-//W3C//DTD SVG 1.1//EN" "http://www.w3.org/Graphics/SVG/1.1/DTD/svg11.dtd">
<svg version="1.1" id="レイヤー_1" xmlns="http://www.w3.org/2000/svg" xmlns:xlink="http://www.w3.org/1999/xlink" x="0px"
	 y="0px" width="800px" height="800px" viewBox="0 0 800 800" enable-background="new 0 0 800 800" xml:space="preserve">
<g>
	<path fill="#0E3C56" stroke="#000000" stroke-width="5" stroke-linecap="round" d="M497.29,497.763c0-66.293,0-132.582,0-198.874
		c0-7.137-5.786-12.921-12.924-12.921c-66.291,0-132.582,0-198.874,0c-7.135,0-12.921,5.784-12.921,12.921
		c0,66.292,0,132.581,0,198.874c0,7.136,5.786,12.921,12.921,12.921c66.292,0,132.583,0,198.874,0
		C491.503,510.683,497.29,504.898,497.29,497.763z M276.503,298.889c0-4.965,4.025-8.987,8.988-8.987
		c4.966,0,8.989,4.022,8.989,8.987c0,4.964-4.023,8.987-8.989,8.987C280.53,307.876,276.503,303.853,276.503,298.889z
		 M475.378,298.889c0-4.965,4.023-8.987,8.987-8.987c4.967,0,8.989,4.022,8.989,8.987c0,4.964-4.021,8.987-8.989,8.987
		C479.402,307.876,475.378,303.853,475.378,298.889z M276.503,497.763c0-4.965,4.025-8.989,8.988-8.989
		c4.966,0,8.989,4.024,8.989,8.989c0,4.964-4.023,8.988-8.989,8.988C280.53,506.751,276.503,502.726,276.503,497.763z
		 M475.378,497.763c0-4.965,4.023-8.989,8.987-8.989c4.967,0,8.989,4.024,8.989,8.989c0,4.964-4.021,8.988-8.989,8.988
		C479.402,506.751,475.378,502.726,475.378,497.763z"/>
	
		<rect x="438.301" y="471.921" fill="#262626" stroke="#000000" stroke-width="5" stroke-linecap="round" width="58.988" height="14.043"/>
	
		<rect x="277.065" y="403.942" fill="#C9CACA" stroke="#000000" stroke-width="5" stroke-linecap="round" width="77.529" height="73.033"/>
	
		<rect x="300.1" y="285.968" fill="#262626" stroke="#000000" stroke-width="5" stroke-linecap="round" width="169.661" height="28.089"/>
	
		<rect x="300.1" y="496.638" fill="#262626" stroke="#000000" stroke-width="5" stroke-linecap="round" width="169.661" height="14.045"/>
	<polygon fill="#727171" stroke="#000000" stroke-width="5" stroke-linecap="round" points="293.918,464.335 293.918,413.773 
		277.066,413.773 277.066,467.144 282.684,467.144 	"/>
	
		<rect x="438.301" y="433.595" fill="none" stroke="#000000" stroke-width="5" stroke-linecap="round" width="79.772" height="33.709"/>
	
		<rect x="403.469" y="325.292" fill="none" stroke="#000000" stroke-width="5" stroke-linecap="round" width="119.1" height="90.45"/>
	
		<rect x="272.572" y="320.237" fill="none" stroke="#000000" stroke-width="5" stroke-linecap="round" width="32.585" height="44.942"/>
	
		<rect x="438.301" y="433.595" fill="#C9CACA" stroke="#000000" stroke-width="5" stroke-linecap="round" width="79.772" height="33.709"/>
	
		<rect x="403.469" y="325.292" fill="#C9CACA" stroke="#000000" stroke-width="5" stroke-linecap="round" width="119.1" height="90.45"/>
	
		<rect x="272.572" y="320.237" fill="#C9CACA" stroke="#000000" stroke-width="5" stroke-linecap="round" width="32.585" height="44.942"/>
	<g>
		<g>
			<rect x="441.46" y="302.822" width="6.32" height="6.318"/>
			<rect x="441.46" y="290.884" width="6.32" height="6.317"/>
		</g>
		<g>
			<rect x="429.523" y="302.822" width="6.32" height="6.318"/>
			<rect x="429.523" y="290.884" width="6.32" height="6.317"/>
		</g>
		<g>
			<rect x="417.584" y="302.822" width="6.32" height="6.318"/>
			<rect x="417.584" y="290.884" width="6.32" height="6.317"/>
		</g>
		<g>
			<rect x="405.647" y="302.822" width="6.319" height="6.318"/>
			<rect x="405.647" y="290.884" width="6.319" height="6.317"/>
		</g>
		<g>
			<rect x="393.709" y="302.822" width="6.318" height="6.318"/>
			<rect x="393.709" y="290.884" width="6.318" height="6.317"/>
		</g>
		<g>
			<rect x="381.769" y="302.822" width="6.321" height="6.318"/>
			<rect x="381.769" y="290.884" width="6.321" height="6.317"/>
		</g>
		<g>
			<rect x="369.833" y="302.822" width="6.321" height="6.318"/>
			<rect x="369.833" y="290.884" width="6.321" height="6.317"/>
		</g>
		<g>
			<rect x="357.894" y="302.822" width="6.321" height="6.318"/>
			<rect x="357.894" y="290.884" width="6.321" height="6.317"/>
		</g>
		<g>
			<rect x="345.957" y="302.822" width="6.321" height="6.318"/>
			<rect x="345.957" y="290.884" width="6.321" height="6.317"/>
		</g>
		<g>
			<rect x="334.018" y="302.822" width="6.321" height="6.318"/>
			<rect x="334.018" y="290.884" width="6.321" height="6.317"/>
		</g>
		<g>
			<rect x="322.082" y="302.822" width="6.318" height="6.318"/>
			<rect x="322.082" y="290.884" width="6.318" height="6.317"/>
		</g>
		<g>
			<rect x="310.143" y="302.822" width="6.319" height="6.318"/>
			<rect x="310.143" y="290.884" width="6.319" height="6.317"/>
		</g>
		<g>
			<rect x="453.4" y="302.822" width="6.319" height="6.318"/>
			<rect x="453.4" y="290.884" width="6.319" height="6.317"/>
		</g>
	</g>
	<g>
		<rect x="441.46" y="500.501" fill="#C9A063" width="6.32" height="6.319"/>
		<rect x="429.523" y="500.501" fill="#C9A063" width="6.32" height="6.319"/>
		<rect x="417.584" y="500.501" fill="#C9A063" width="6.32" height="6.319"/>
		<rect x="405.647" y="500.501" fill="#C9A063" width="6.319" height="6.319"/>
		<rect x="393.709" y="500.501" fill="#C9A063" width="6.318" height="6.319"/>
		<rect x="381.769" y="500.501" fill="#C9A063" width="6.321" height="6.319"/>
		<rect x="369.833" y="500.501" fill="#C9A063" width="6.321" height="6.319"/>
		<rect x="357.894" y="500.501" fill="#C9A063" width="6.321" height="6.319"/>
		<rect x="345.957" y="500.501" fill="#C9A063" width="6.321" height="6.319"/>
		<rect x="334.018" y="500.501" fill="#C9A063" width="6.321" height="6.319"/>
		<rect x="322.082" y="500.501" fill="#C9A063" width="6.318" height="6.319"/>
		<rect x="310.143" y="500.501" fill="#C9A063" width="6.319" height="6.319"/>
		<rect x="453.4" y="500.501" fill="#C9A063" width="6.319" height="6.319"/>
	</g>
	<g>
		<rect x="470.603" y="475.782" fill="#C9A063" width="6.321" height="6.318"/>
		<rect x="458.666" y="475.782" fill="#C9A063" width="6.319" height="6.318"/>
		<rect x="446.727" y="475.782" fill="#C9A063" width="6.321" height="6.318"/>
		<rect x="482.542" y="475.782" fill="#C9A063" width="6.318" height="6.318"/>
	</g>
	<polygon fill="#B5B5B6" points="404.021,325.794 404.021,415.237 522.016,415.237 463.019,370.517 	"/>
	<polygon fill="#B5B5B6" points="271.975,321.306 271.975,365.085 303.356,365.085 287.665,343.197 	"/>
	<polygon fill="#B5B5B6" points="438.801,431.378 438.801,465.519 514.917,465.519 476.859,448.448 	"/>
	
		<rect x="438.301" y="433.595" fill="none" stroke="#000000" stroke-width="5" stroke-linecap="round" width="79.772" height="33.709"/>
	
		<rect x="403.469" y="325.292" fill="none" stroke="#000000" stroke-width="5" stroke-linecap="round" width="119.1" height="90.45"/>
	
		<rect x="272.572" y="320.237" fill="none" stroke="#000000" stroke-width="5" stroke-linecap="round" width="32.585" height="44.942"/>
</g>
</svg>
